<svg xmlns="http://www.w3.org/2000/svg" viewBox="0 0 800 500" preserveAspectRatio="xMidYMid slice">
  <defs><linearGradient id="ds" x1="0" y1="0" x2="0" y2="1"><stop offset="0" stop-color="#9db8d9"/><stop offset="1" stop-color="#e8eef7"/></linearGradient></defs>
  <rect width="800" height="500" fill="url(#ds)"/>
  <path d="M0 420 L280 100 L560 420 Z" fill="#8fa6c9"/>
  <path d="M215 175 L280 100 L345 175 L315 210 L280 185 L245 210 Z" fill="#f7fafd"/>
  <path d="M420 420 L620 200 L800 420 Z" fill="#7d94b8"/>
  <path d="M585 240 L620 200 L655 240 L635 262 L605 262 Z" fill="#f7fafd"/>
  <rect y="400" width="800" height="100" fill="#3f5d68"/>
  <g fill="#24483a"><path d="M120 360 l22 44 h-44 z M120 384 l28 56 h-56 z"/><path d="M690 360 l22 44 h-44 z M690 384 l28 56 h-56 z"/></g>
</svg>
